<?xml version="1.0" encoding="UTF-8" standalone="no"?>
<!-- Created with Inkscape (http://www.inkscape.org/) -->

<svg
   xmlns:dc="http://purl.org/dc/elements/1.1/"
   xmlns:cc="http://creativecommons.org/ns#"
   xmlns:rdf="http://www.w3.org/1999/02/22-rdf-syntax-ns#"
   xmlns:svg="http://www.w3.org/2000/svg"
   xmlns="http://www.w3.org/2000/svg"
   xmlns:sodipodi="http://sodipodi.sourceforge.net/DTD/sodipodi-0.dtd"
   xmlns:inkscape="http://www.inkscape.org/namespaces/inkscape"
   width="192.2571mm"
   height="71.222427mm"
   viewBox="0 0 192.2571 71.222427"
   version="1.1"
   id="svg8"
   inkscape:version="0.92.4 (5da689c313, 2019-01-14)"
   sodipodi:docname="logo_words.svg">
  <defs
     id="defs2" />
  <sodipodi:namedview
     id="base"
     pagecolor="#ffffff"
     bordercolor="#666666"
     borderopacity="1.0"
     inkscape:pageopacity="0.0"
     inkscape:pageshadow="2"
     inkscape:zoom="0.7"
     inkscape:cx="439.3486"
     inkscape:cy="179.74258"
     inkscape:document-units="mm"
     inkscape:current-layer="layer1"
     showgrid="false"
     inkscape:window-width="1366"
     inkscape:window-height="704"
     inkscape:window-x="0"
     inkscape:window-y="27"
     inkscape:window-maximized="1"
     fit-margin-top="-0.2"
     fit-margin-left="0"
     fit-margin-right="0"
     fit-margin-bottom="0" />
  <metadata
     id="metadata5">
    <rdf:RDF>
      <cc:Work
         rdf:about="">
        <dc:format>image/svg+xml</dc:format>
        <dc:type
           rdf:resource="http://purl.org/dc/dcmitype/StillImage" />
        <dc:title></dc:title>
      </cc:Work>
    </rdf:RDF>
  </metadata>
  <g
     inkscape:label="Calque 1"
     inkscape:groupmode="layer"
     id="layer1"
     transform="translate(-31.612825,-129.86875)">
    <text
       xml:space="preserve"
       style="font-style:normal;font-variant:normal;font-weight:normal;font-stretch:normal;font-size:30.23860359px;line-height:1.25;font-family:Angelface;-inkscape-font-specification:Angelface;letter-spacing:0px;word-spacing:0px;fill:#66b6db;fill-opacity:1;stroke:none;stroke-width:0.17445347"
       x="59.550854"
       y="194.80132"
       id="text832"><tspan
         sodipodi:role="line"
         id="tspan830"
         x="59.550854"
         y="194.80132"
         style="font-style:normal;font-variant:normal;font-weight:normal;font-stretch:normal;font-size:30.23860359px;line-height:0;font-family:Angelface;-inkscape-font-specification:Angelface;fill:#66b6db;fill-opacity:1;stroke-width:0.17445347">Veganismo</tspan></text>
    <g
       id="g844">
      <path
         sodipodi:nodetypes="sssccsssssssssszs"
         inkscape:connector-curvature="0"
         id="path4620"
         d="m 37.21728,134.19945 c 2.297243,-0.0185 4.477905,0.0693 4.91108,0.93544 0.192734,0.38536 1.170421,3.91359 1.780772,7.71579 0.761432,4.74335 1.174204,9.93165 1.359644,10.19127 0.334087,0.46772 1.102487,-0.73499 1.469983,-1.60362 0.367496,-0.86862 2.405425,-7.28309 3.173825,-9.65511 0.7684,-2.37202 1.530459,-6.63079 3.441094,-7.18287 0.759932,-0.21958 1.552201,0.19381 1.604422,1.10052 0.07907,1.37296 -1.435111,4.33905 -2.038733,5.94872 -0.517897,1.38106 -1.981534,6.49717 -3.634879,10.93955 -1.546288,4.15474 -3.314685,7.60928 -4.082529,8.06999 -0.341789,0.20507 -1.628296,0.56906 -3.173813,0.56404 -1.475856,-0.005 -3.372605,-0.40995 -4.009053,-1.66653 -0.479334,-0.94637 -1.819955,-4.16441 -2.665441,-7.52955 -1.397193,-5.561 -3.530923,-12.3057 -3.615396,-13.15043 -0.133634,-1.33634 -0.383555,-3.44201 0.668173,-4.14267 1.051729,-0.70066 3.472878,-0.52375 4.810851,-0.53454 z"
         style="fill:#eeebd8;fill-opacity:1;stroke:none;stroke-width:0.26458332px;stroke-linecap:butt;stroke-linejoin:miter;stroke-opacity:1" />
      <path
         sodipodi:nodetypes="csssccccccczzsssssc"
         inkscape:connector-curvature="0"
         id="path4622"
         d="m 64.345139,137.50691 c 1.512729,0.021 5.808354,-0.32671 8.216538,-0.23815 1.364843,0.0502 1.632737,0.91805 1.62924,1.45371 -0.0088,1.35232 -0.361191,1.22367 -2.832616,1.18176 -2.347678,-0.0398 -4.658342,0.0236 -4.658342,0.0236 0,0 -0.361762,9.7162 0.172778,9.98347 0.534541,0.26727 3.753238,0.29089 5.22322,0.22407 1.469983,-0.0668 1.206767,2.42094 -0.396851,2.48776 -1.603616,0.0668 -4.68868,-0.42047 -4.889133,0.0472 -0.200451,0.46772 -0.424526,5.08217 -0.02362,5.28263 0.400904,0.20045 3.639175,-0.0668 6.245051,0.0668 2.605878,0.13364 1.816533,2.38055 0.267271,2.73951 -1.549262,0.35896 -2.232221,0.006 -6.822329,0.0742 -4.590108,0.0679 -8.396517,0.47178 -9.080208,-0.34149 -0.123708,-0.14715 -0.692851,-0.62267 -0.780441,-2.75725 -0.08981,-2.18877 -0.05929,-5.94262 -0.08291,-9.63351 -0.03226,-5.04068 -0.04288,-9.94352 0.529263,-10.39397 0.941193,-0.741 4.877671,-0.23384 7.283096,-0.20044 z"
         style="fill:#eeebd8;fill-opacity:1;stroke:none;stroke-width:0.26458332px;stroke-linecap:butt;stroke-linejoin:miter;stroke-opacity:1" />
      <path
         sodipodi:nodetypes="sssssssssszzzs"
         inkscape:connector-curvature="0"
         id="path4533"
         d="m 74.434561,148.26451 c 0.178503,-3.44309 2.31696,-7.69273 5.440103,-9.48254 4.195107,-2.40412 9.8254,-1.73681 11.617902,-1.73132 3.788422,0.0116 4.397693,3.48431 1.059007,3.13706 -1.948216,-0.20263 -6.247223,-0.50256 -8.157103,1.61145 -1.363107,1.50879 -0.744284,4.89625 -0.672288,7.46761 0.09767,3.4885 0.361001,6.58126 1.38663,8.01165 0.789587,1.10119 2.184933,0.96694 3.357402,0.80824 1.559874,-0.21114 4.176085,-2.61193 4.099648,-4.1553 -0.09778,-1.97424 -2.13953,-1.7458 -3.2162,-1.66117 -3.27736,0.25762 -2.940974,-2.38174 -0.56893,-2.66598 2.372044,-0.28424 6.843418,0.9192 6.795802,5.17737 -0.04762,4.25816 -5.243273,6.60892 -10.183919,6.24505 -4.940646,-0.36387 -11.329786,-5.5919 -10.958054,-12.76212 z"
         style="fill:#eeebd8;fill-opacity:1;stroke:none;stroke-width:0.26458332px;stroke-linecap:butt;stroke-linejoin:miter;stroke-opacity:1" />
      <path
         inkscape:connector-curvature="0"
         id="path836"
         d="m 122.67671,131.56016 c 0,0 -7.41673,-3.40768 -15.50163,3.00678 -8.084906,6.41447 -10.49033,15.30118 -10.49033,17.77343 0,2.47224 0.668173,5.74629 3.006783,6.5481 2.338607,0.80181 5.412207,0.4009 9.554887,-3.67496 4.14267,-4.07585 6.74855,-8.15172 7.55036,-9.68852 0.80181,-1.53679 5.87993,-13.96483 5.87993,-13.96483 z"
         style="fill:none;stroke:#eeebd8;stroke-width:2.06500006;stroke-linecap:butt;stroke-linejoin:miter;stroke-miterlimit:4;stroke-dasharray:none;stroke-opacity:1" />
      <path
         sodipodi:nodetypes="cssccccsscczzczscscscsccccccsccccscccsccccccc"
         inkscape:connector-curvature="0"
         id="path838"
         d="m 116.06179,146.89475 c 0,0 -2.74154,5.7731 -3.34697,9.01469 -0.45149,2.41734 0.79573,5.82813 4.41605,2.84539 6.73487,-5.54879 11.09168,-12.09394 11.09168,-12.09394 0,0 -6.71514,18.70887 -10.05602,24.02084 -1.33634,2.07134 -3.17382,3.50792 -4.04244,3.37429 -0.86863,-0.13364 -1.20272,-3.00679 -0.26727,-4.87767 0.93544,-1.87089 4.87767,-5.54584 7.34991,-7.684 2.47224,-2.13816 6.64832,-5.91333 9.12057,-8.38558 2.47224,-2.47224 4.9779,-6.58151 4.9779,-6.58151 0,0 -3.47451,7.28309 -3.87541,9.42125 -0.40091,2.13815 -0.45103,2.97337 1.00226,3.40768 1.45329,0.43431 6.5282,-4.48802 8.4858,-7.81764 1.95761,-3.32961 3.27406,-5.34538 3.27406,-5.34538 0,0 -3.25732,7.84885 -3.74178,9.08716 -0.48446,1.23831 -2.10474,4.91107 1.10249,4.00904 2.27957,-0.64113 7.51696,-7.01582 9.12057,-8.88671 1.60362,-1.87088 4.54359,-4.27631 6.34766,-4.27631 1.80406,0 2.13815,0.26727 2.13815,0.26727 0,0 -3.20723,-0.73499 -5.34539,1.1359 -2.13815,1.87088 -6.00546,6.1553 -6.00546,6.1553 0,0 -0.6405,4.68177 0.99416,5.47092 0.96885,0.46772 3.34087,-0.10023 4.81085,-1.67043 3.54132,-2.87315 6.41447,-9.08717 8.0849,-12.89576 1.67044,-3.80859 4.00904,-10.22306 4.00904,-10.22306 0,0 -4.14267,10.28988 -4.81085,11.96031 -0.66817,1.67044 -3.94222,7.41673 -3.94222,7.41673 0,0 -0.46772,4.81085 0.0668,5.4122 0.53453,0.60136 1.20271,1.00227 3.00678,-1.13589 2.10781,-2.49815 7.21627,-9.22079 10.15624,-10.82441 3.07359,-2.07134 6.48128,-1.06908 6.48128,-1.06908 0,0 -2.53906,4.87767 -3.14041,6.28083 -0.60136,1.40317 -1.80407,3.34087 -3.00678,4.54359 -1.20272,1.20271 -4.81086,3.00678 -5.81312,2.40542 -1.00226,-0.60136 -1.40316,-2.00452 -1.06908,-3.74177 0.33409,-1.73725 1.46999,-3.27405 1.46999,-3.27405 0,0 2.3052,-3.30747 3.90882,-4.37655 1.60361,-1.06908 3.24064,-2.03792 4.77744,-2.03792 1.5368,0 3.0736,0.13363 3.0736,0.13363 0,0 -1.26953,2.47225 -2.20498,4.34313 -0.93544,1.87089 -2.27179,3.67496 -2.33861,4.81085 -0.0668,1.1359 -0.13363,3.94223 0.80181,4.14268 0.93545,0.20045 1.80407,0.20045 2.93997,-0.73499 1.13589,-0.93544 5.54584,-5.87993 5.54584,-5.87993 v 0"
         style="fill:none;stroke:#eeebd8;stroke-width:2.06500006;stroke-linecap:butt;stroke-linejoin:round;stroke-miterlimit:4;stroke-dasharray:none;stroke-opacity:1" />
    </g>
    <ellipse
       style="fill:#eeebd8;fill-opacity:1;stroke:#eeebd8;stroke-width:1.16053295;stroke-linejoin:round;stroke-miterlimit:4;stroke-dasharray:none;stroke-opacity:1"
       id="path840"
       cx="187.66879"
       cy="33.70068"
       rx="0.59397435"
       ry="0.68846852"
       transform="rotate(36.376969)" />
  </g>
</svg>
