<?xml version="1.0" encoding="UTF-8" standalone="no"?>
<svg
   xmlns:dc="http://purl.org/dc/elements/1.1/"
   xmlns:cc="http://creativecommons.org/ns#"
   xmlns:rdf="http://www.w3.org/1999/02/22-rdf-syntax-ns#"
   xmlns:svg="http://www.w3.org/2000/svg"
   xmlns="http://www.w3.org/2000/svg"
   version="1.1"
   id="svg2"
   width="512"
   height="512"
   viewBox="0 0 512 512">
  <metadata
     id="metadata8">
    <rdf:RDF>
      <cc:Work
         rdf:about="">
        <dc:format>image/svg+xml</dc:format>
        <dc:type
           rdf:resource="http://purl.org/dc/dcmitype/StillImage" />
        <dc:title></dc:title>
      </cc:Work>
    </rdf:RDF>
  </metadata>
  <defs
     id="defs6" />
  <g
     id="g10"
     style="display:inline"
     transform="translate(-14.901363,-39.860665)">
    <g
       id="g45"
       transform="matrix(1.0642141,0,0,1.1229938,-0.69259358,-5.188041)">
      <path
         style="opacity:1;fill:#00b140;fill-opacity:1;stroke:#000000;stroke-width:16;stroke-linecap:round;stroke-linejoin:round;stroke-miterlimit:4;stroke-dasharray:none;stroke-opacity:1"
         d="M 335.94909,273.37973 V 184.19799 L 487.75923,184.0576 V 488.04 H 343.61746 Z"
         id="path2936" />
      <path
         style="opacity:1;fill:#00b140;fill-opacity:1;stroke:#000000;stroke-width:16;stroke-linecap:round;stroke-linejoin:round;stroke-miterlimit:4;stroke-dasharray:none;stroke-opacity:1"
         d="M 440.315,488.04 H 23.443786 C 13.56053,355.00028 96.907897,248.072 233.23076,248.072 c 151.03641,0 221.73377,141.35414 207.08424,239.968 z"
         id="path837" />
      <path
         style="opacity:1;fill:#0077c8;fill-opacity:1;stroke:#000000;stroke-width:16;stroke-linecap:round;stroke-linejoin:round;stroke-miterlimit:4;stroke-dasharray:none;stroke-opacity:1;paint-order:normal"
         d="M 55.868923,488.04 C 44.997315,400.48784 95.273342,280.91417 230.61775,280.91417 c 157.32142,0 186.78656,146.10046 178.22529,207.12583 z"
         id="path839" />
      <rect
         style="opacity:1;fill:#ffffff;fill-opacity:1;stroke:#000000;stroke-width:17.2475;stroke-linecap:round;stroke-linejoin:round;stroke-miterlimit:4;stroke-dasharray:none;stroke-opacity:1;paint-order:normal"
         id="rect841"
         width="33.288799"
         height="33.288799"
         x="127.29109"
         y="415.32758" />
      <rect
         style="opacity:1;fill:#ffffff;fill-opacity:1;stroke:#000000;stroke-width:17.2475;stroke-linecap:round;stroke-linejoin:round;stroke-miterlimit:4;stroke-dasharray:none;stroke-opacity:1;paint-order:normal"
         id="rect841-3"
         width="33.288799"
         height="33.288799"
         x="303.46625"
         y="415.2872" />
      <path
         style="opacity:1;fill:#ffffff;fill-opacity:1;stroke:#000000;stroke-width:16;stroke-linecap:butt;stroke-linejoin:miter;stroke-miterlimit:4;stroke-dasharray:none;stroke-opacity:1"
         d="m 199.98764,488.04 c 0,-32.25246 -7.5163,-79.30446 29.79269,-79.30446 45.45313,0 34.16009,47.28148 34.16009,79.30446 z"
         id="path2916" />
      <rect
         style="opacity:1;fill:#ffffff;fill-opacity:1;stroke:#000000;stroke-width:16;stroke-linecap:square;stroke-linejoin:miter;stroke-miterlimit:4;stroke-dasharray:none;stroke-opacity:1;paint-order:normal"
         id="rect2948"
         width="104.01051"
         height="63.05471"
         x="359.97305"
         y="120.1632" />
      <path
         style="opacity:1;fill:none;stroke:#000000;stroke-width:16;stroke-linecap:square;stroke-linejoin:miter;stroke-miterlimit:4;stroke-dasharray:none;stroke-opacity:1"
         d="M 423.86652,328.04123 V 166.82119 c 0,0 1.90724,-15.14768 15.14768,-15.14768 13.24045,0 16.57855,14.77938 16.57855,14.77938 v 217.8402"
         id="path2938" />
      <path
         style="fill:none;stroke:#000000;stroke-width:16;stroke-linecap:butt;stroke-linejoin:miter;stroke-miterlimit:4;stroke-dasharray:none;stroke-opacity:1"
         d="m 426.81557,216.42725 h 26.1407"
         id="path2940" />
      <path
         style="fill:none;stroke:#000000;stroke-width:16;stroke-linecap:butt;stroke-linejoin:miter;stroke-miterlimit:4;stroke-dasharray:none;stroke-opacity:1"
         d="m 427.51483,248.94575 h 24.81088"
         id="path2942" />
      <path
         style="fill:none;stroke:#000000;stroke-width:16;stroke-linecap:butt;stroke-linejoin:miter;stroke-miterlimit:4;stroke-dasharray:none;stroke-opacity:1"
         d="m 427.31147,280.42641 h 23.06631"
         id="path2944" />
      <path
         style="fill:none;stroke:#000000;stroke-width:16;stroke-linecap:butt;stroke-linejoin:miter;stroke-miterlimit:4;stroke-dasharray:none;stroke-opacity:1"
         d="M 427.64672,313.16207 H 451.8567"
         id="path2946" />
      <path
         style="opacity:1;fill:#00b140;fill-opacity:1;stroke:#000000;stroke-width:16;stroke-linecap:round;stroke-linejoin:round;stroke-miterlimit:4;stroke-dasharray:none;stroke-opacity:1"
         d="M 407.96171,48.114499 336.36902,119.97366 479.707,119.70184 Z"
         id="path2954" />
      <path
         style="fill:none;stroke:#000000;stroke-width:16;stroke-linecap:square;stroke-linejoin:miter;stroke-miterlimit:4;stroke-dasharray:none;stroke-opacity:1"
         d="M 231.97912,143.49229 V 245.08812"
         id="path2956" />
      <rect
         style="opacity:1;fill:#00b140;fill-opacity:1;stroke:#000000;stroke-width:16;stroke-linecap:square;stroke-linejoin:round;stroke-miterlimit:4;stroke-dasharray:none;stroke-opacity:1;paint-order:normal"
         id="rect2958"
         width="48.288506"
         height="40.546974"
         x="232.0714"
         y="151.74467" />
      <path
         style="opacity:1;fill:#00b140;fill-opacity:1;stroke:none;stroke-width:1px;stroke-linecap:butt;stroke-linejoin:miter;stroke-opacity:1"
         d="M 231.28807,363.33702 131.2679,318.87727 c 0,0 33.1881,-29.97076 100.07938,-29.97076 66.89128,0 99.02575,28.04487 99.02575,28.04487 z"
         id="path2974" />
      <path
         style="fill:#0077c8;fill-opacity:1;stroke:none;stroke-width:1px;stroke-linecap:butt;stroke-linejoin:miter;stroke-opacity:1"
         d="m 240.07063,163.36432 14.98954,14.76386 17.29824,-15.38966 v 21.55657 h -32.28378 z"
         id="path3003" />
      <path
         style="fill:#ffffff;stroke:none;stroke-width:1px;stroke-linecap:butt;stroke-linejoin:miter;stroke-opacity:1"
         d="m 255.70127,184.29185 -15.62829,-19.34915 -0.005,-5.19814 4.37039,1.7e-4 11.21373,13.9768 11.18304,-13.97883 h 5.52602 v 3.75232 z"
         id="path3001" />
      <path
         style="opacity:1;fill:#ffffff;stroke:none;stroke-width:1px;stroke-linecap:butt;stroke-linejoin:miter;stroke-opacity:1"
         d="m 107.74459,340.00083 c 0,0 5.00512,-5.84327 12.8192,-12.6728 7.81408,-6.82953 12.78947,-10.04134 12.78947,-10.04134 l 97.96859,43.08848 99.05118,-43.42379 c 0,0 7.01938,4.84727 12.81024,9.81318 5.79086,4.96592 12.92405,12.86936 12.92405,12.86936 l -124.80039,54.70324 z"
         id="path3005" />
    </g>
  </g>
</svg>
